<?xml version="1.0" encoding="UTF-8"?>
<svg width="16px" height="16px" viewBox="0 0 16 16" version="1.1" xmlns="http://www.w3.org/2000/svg">
    <!-- Generator: Sketch 50.2 (55047) - http://www.bohemiancoding.com/sketch -->
    <title>画板1</title>
    <desc>Created with Sketch.</desc>
    <defs></defs>
    <g id="画板1" stroke="none" stroke-width="1" fill="none" fill-rule="evenodd">
        <rect id="Rectangle" fill="#444444" opacity="0" x="0" y="0" width="16" height="16"></rect>
        <path d="M9,7 L15,7 L15,1 L9,1 L9,7 Z M11,5 L13,5 L13,3 L11,3 L11,5 Z M1,7 L7,7 L7,1 L1,1 L1,7 Z M9,15 L15,15 L15,9 L9,9 L9,15 Z M1,15 L7,15 L7,9 L1,9 L1,15 Z M3,13 L5,13 L5,11 L3,11 L3,13 Z"
              id="Fill-1" fill="#888888"></path>
    </g>
</svg>